<mxfile host="app.diagrams.net" agent="Mozilla/5.0 (Windows NT 10.0; Win64; x64) AppleWebKit/537.36 (KHTML, like Gecko) Chrome/127.0.0.0 Safari/537.36 Edg/127.0.0.0" version="24.7.6" pages="2">
  <diagram name="Electricity Bill" id="Q9IYZoSc0HR7RNmCiJ_2">
    <mxGraphModel dx="646" dy="776" grid="0" gridSize="10" guides="1" tooltips="1" connect="1" arrows="1" fold="1" page="1" pageScale="1" pageWidth="850" pageHeight="1100" math="0" shadow="0">
      <root>
        <mxCell id="0" />
        <mxCell id="1" parent="0" />
        <mxCell id="TyH8q7dFmEPOgRURX95A-2" value="" style="rounded=0;whiteSpace=wrap;html=1;rotation=-90;" vertex="1" parent="1">
          <mxGeometry x="-66.29" y="432.95" width="792.59" height="259.32" as="geometry" />
        </mxCell>
        <mxCell id="TyH8q7dFmEPOgRURX95A-3" value="&lt;h1 style=&quot;margin-top: 0px;&quot;&gt;Electricity Bill&lt;/h1&gt;" style="text;html=1;whiteSpace=wrap;overflow=hidden;rounded=0;" vertex="1" parent="1">
          <mxGeometry x="240" y="99" width="180" height="46" as="geometry" />
        </mxCell>
        <mxCell id="TyH8q7dFmEPOgRURX95A-4" value="Record unit Readings" style="ellipse;whiteSpace=wrap;html=1;" vertex="1" parent="1">
          <mxGeometry x="248" y="197" width="161" height="103" as="geometry" />
        </mxCell>
        <mxCell id="TyH8q7dFmEPOgRURX95A-5" value="Prepare detailed Spreadsheet" style="ellipse;whiteSpace=wrap;html=1;" vertex="1" parent="1">
          <mxGeometry x="248" y="329" width="161" height="103" as="geometry" />
        </mxCell>
        <mxCell id="TyH8q7dFmEPOgRURX95A-6" value="Email Spreadsheet" style="ellipse;whiteSpace=wrap;html=1;" vertex="1" parent="1">
          <mxGeometry x="248" y="458" width="161" height="103" as="geometry" />
        </mxCell>
        <mxCell id="TyH8q7dFmEPOgRURX95A-7" value="Create Monthly Account" style="ellipse;whiteSpace=wrap;html=1;" vertex="1" parent="1">
          <mxGeometry x="248" y="585" width="161" height="103" as="geometry" />
        </mxCell>
        <mxCell id="TyH8q7dFmEPOgRURX95A-9" value="Pay Account" style="ellipse;whiteSpace=wrap;html=1;" vertex="1" parent="1">
          <mxGeometry x="248" y="708" width="161" height="103" as="geometry" />
        </mxCell>
        <mxCell id="TyH8q7dFmEPOgRURX95A-10" value="Owner" style="shape=umlActor;verticalLabelPosition=bottom;verticalAlign=top;html=1;outlineConnect=0;" vertex="1" parent="1">
          <mxGeometry x="39" y="373" width="71" height="108.5" as="geometry" />
        </mxCell>
        <mxCell id="TyH8q7dFmEPOgRURX95A-11" value="Technician" style="shape=umlActor;verticalLabelPosition=bottom;verticalAlign=top;html=1;outlineConnect=0;" vertex="1" parent="1">
          <mxGeometry x="533" y="373" width="71" height="108.5" as="geometry" />
        </mxCell>
        <mxCell id="TyH8q7dFmEPOgRURX95A-12" value="Accountant" style="shape=umlActor;verticalLabelPosition=bottom;verticalAlign=top;html=1;outlineConnect=0;" vertex="1" parent="1">
          <mxGeometry x="533" y="600" width="71" height="108.5" as="geometry" />
        </mxCell>
        <mxCell id="TyH8q7dFmEPOgRURX95A-14" value="Prepare Receipt" style="ellipse;whiteSpace=wrap;html=1;" vertex="1" parent="1">
          <mxGeometry x="248" y="835" width="161" height="103" as="geometry" />
        </mxCell>
        <mxCell id="TyH8q7dFmEPOgRURX95A-15" value="" style="endArrow=none;html=1;rounded=0;" edge="1" parent="1">
          <mxGeometry width="50" height="50" relative="1" as="geometry">
            <mxPoint x="409" y="255" as="sourcePoint" />
            <mxPoint x="510" y="374" as="targetPoint" />
          </mxGeometry>
        </mxCell>
        <mxCell id="TyH8q7dFmEPOgRURX95A-16" value="" style="endArrow=none;html=1;rounded=0;" edge="1" parent="1">
          <mxGeometry width="50" height="50" relative="1" as="geometry">
            <mxPoint x="409" y="382" as="sourcePoint" />
            <mxPoint x="496" y="393" as="targetPoint" />
          </mxGeometry>
        </mxCell>
        <mxCell id="TyH8q7dFmEPOgRURX95A-17" value="" style="endArrow=none;html=1;rounded=0;" edge="1" parent="1">
          <mxGeometry width="50" height="50" relative="1" as="geometry">
            <mxPoint x="123" y="500" as="sourcePoint" />
            <mxPoint x="246" y="757" as="targetPoint" />
          </mxGeometry>
        </mxCell>
        <mxCell id="TyH8q7dFmEPOgRURX95A-18" value="" style="endArrow=none;html=1;rounded=0;" edge="1" parent="1">
          <mxGeometry width="50" height="50" relative="1" as="geometry">
            <mxPoint x="409" y="638" as="sourcePoint" />
            <mxPoint x="514" y="636" as="targetPoint" />
          </mxGeometry>
        </mxCell>
        <mxCell id="TyH8q7dFmEPOgRURX95A-19" value="" style="endArrow=none;html=1;rounded=0;" edge="1" parent="1">
          <mxGeometry width="50" height="50" relative="1" as="geometry">
            <mxPoint x="406" y="878" as="sourcePoint" />
            <mxPoint x="510" y="677" as="targetPoint" />
          </mxGeometry>
        </mxCell>
        <mxCell id="TyH8q7dFmEPOgRURX95A-20" value="" style="endArrow=classic;html=1;rounded=0;" edge="1" parent="1">
          <mxGeometry width="50" height="50" relative="1" as="geometry">
            <mxPoint x="409" y="511" as="sourcePoint" />
            <mxPoint x="511" y="606" as="targetPoint" />
          </mxGeometry>
        </mxCell>
      </root>
    </mxGraphModel>
  </diagram>
  <diagram id="InTalfff0tnCZU6EGdEz" name="Page-2">
    <mxGraphModel dx="646" dy="776" grid="0" gridSize="10" guides="1" tooltips="1" connect="1" arrows="1" fold="1" page="1" pageScale="1" pageWidth="850" pageHeight="1100" math="0" shadow="0">
      <root>
        <mxCell id="0" />
        <mxCell id="1" parent="0" />
        <mxCell id="obQqOz2f5GegzhMVmb3T-1" value="" style="rounded=0;whiteSpace=wrap;html=1;rotation=-90;" vertex="1" parent="1">
          <mxGeometry x="-178.75" y="528.75" width="1015.29" height="223.5" as="geometry" />
        </mxCell>
        <mxCell id="obQqOz2f5GegzhMVmb3T-3" value="Shopper" style="shape=umlActor;verticalLabelPosition=bottom;verticalAlign=top;html=1;outlineConnect=0;" vertex="1" parent="1">
          <mxGeometry x="59" y="361" width="51" height="115" as="geometry" />
        </mxCell>
        <mxCell id="obQqOz2f5GegzhMVmb3T-4" value="Bank" style="shape=umlActor;verticalLabelPosition=bottom;verticalAlign=top;html=1;outlineConnect=0;" vertex="1" parent="1">
          <mxGeometry x="559" y="290" width="51" height="115" as="geometry" />
        </mxCell>
        <mxCell id="obQqOz2f5GegzhMVmb3T-5" value="Post office" style="shape=umlActor;verticalLabelPosition=bottom;verticalAlign=top;html=1;outlineConnect=0;" vertex="1" parent="1">
          <mxGeometry x="559" y="511" width="51" height="115" as="geometry" />
        </mxCell>
        <mxCell id="obQqOz2f5GegzhMVmb3T-7" value="&lt;h1 style=&quot;margin-top: 0px;&quot;&gt;Payment and Delivery&lt;/h1&gt;" style="text;html=1;whiteSpace=wrap;overflow=hidden;rounded=0;" vertex="1" parent="1">
          <mxGeometry x="243.52" y="40" width="180" height="65" as="geometry" />
        </mxCell>
        <mxCell id="obQqOz2f5GegzhMVmb3T-8" value="Courier" style="shape=umlActor;verticalLabelPosition=bottom;verticalAlign=top;html=1;outlineConnect=0;" vertex="1" parent="1">
          <mxGeometry x="559" y="759" width="51" height="115" as="geometry" />
        </mxCell>
        <mxCell id="obQqOz2f5GegzhMVmb3T-9" value="Delivery Receiver" style="shape=umlActor;verticalLabelPosition=bottom;verticalAlign=top;html=1;outlineConnect=0;" vertex="1" parent="1">
          <mxGeometry x="59" y="649" width="51" height="115" as="geometry" />
        </mxCell>
        <mxCell id="obQqOz2f5GegzhMVmb3T-10" value="Make card payment" style="ellipse;whiteSpace=wrap;html=1;" vertex="1" parent="1">
          <mxGeometry x="258" y="140" width="148" height="80" as="geometry" />
        </mxCell>
        <mxCell id="obQqOz2f5GegzhMVmb3T-11" value="Make bank deposit" style="ellipse;whiteSpace=wrap;html=1;" vertex="1" parent="1">
          <mxGeometry x="258" y="236" width="148" height="80" as="geometry" />
        </mxCell>
        <mxCell id="obQqOz2f5GegzhMVmb3T-12" value="Give order number" style="ellipse;whiteSpace=wrap;html=1;" vertex="1" parent="1">
          <mxGeometry x="258" y="331" width="148" height="80" as="geometry" />
        </mxCell>
        <mxCell id="obQqOz2f5GegzhMVmb3T-13" value="Credit shop account" style="ellipse;whiteSpace=wrap;html=1;" vertex="1" parent="1">
          <mxGeometry x="258" y="431" width="148" height="80" as="geometry" />
        </mxCell>
        <mxCell id="obQqOz2f5GegzhMVmb3T-14" value="Fill registration form" style="ellipse;whiteSpace=wrap;html=1;" vertex="1" parent="1">
          <mxGeometry x="258" y="529" width="148" height="80" as="geometry" />
        </mxCell>
        <mxCell id="obQqOz2f5GegzhMVmb3T-15" value="Give dispatch details" style="ellipse;whiteSpace=wrap;html=1;" vertex="1" parent="1">
          <mxGeometry x="258" y="630" width="148" height="80" as="geometry" />
        </mxCell>
        <mxCell id="obQqOz2f5GegzhMVmb3T-16" value="Collect parcel" style="ellipse;whiteSpace=wrap;html=1;" vertex="1" parent="1">
          <mxGeometry x="258" y="727" width="148" height="80" as="geometry" />
        </mxCell>
        <mxCell id="obQqOz2f5GegzhMVmb3T-17" value="Give-out delivery details" style="ellipse;whiteSpace=wrap;html=1;" vertex="1" parent="1">
          <mxGeometry x="258" y="820" width="148" height="80" as="geometry" />
        </mxCell>
        <mxCell id="obQqOz2f5GegzhMVmb3T-18" value="Deliver parcel" style="ellipse;whiteSpace=wrap;html=1;" vertex="1" parent="1">
          <mxGeometry x="258" y="918" width="148" height="80" as="geometry" />
        </mxCell>
        <mxCell id="obQqOz2f5GegzhMVmb3T-22" value="" style="endArrow=none;html=1;rounded=0;" edge="1" parent="1">
          <mxGeometry width="50" height="50" relative="1" as="geometry">
            <mxPoint x="143" y="352" as="sourcePoint" />
            <mxPoint x="262" y="193" as="targetPoint" />
          </mxGeometry>
        </mxCell>
        <mxCell id="obQqOz2f5GegzhMVmb3T-23" value="" style="endArrow=none;html=1;rounded=0;" edge="1" parent="1">
          <mxGeometry width="50" height="50" relative="1" as="geometry">
            <mxPoint x="159" y="364" as="sourcePoint" />
            <mxPoint x="258" y="277" as="targetPoint" />
          </mxGeometry>
        </mxCell>
        <mxCell id="obQqOz2f5GegzhMVmb3T-25" value="" style="endArrow=classic;html=1;rounded=0;" edge="1" parent="1">
          <mxGeometry width="50" height="50" relative="1" as="geometry">
            <mxPoint x="169" y="381" as="sourcePoint" />
            <mxPoint x="256" y="374" as="targetPoint" />
          </mxGeometry>
        </mxCell>
        <mxCell id="obQqOz2f5GegzhMVmb3T-26" value="" style="endArrow=none;html=1;rounded=0;" edge="1" parent="1">
          <mxGeometry width="50" height="50" relative="1" as="geometry">
            <mxPoint x="407" y="466" as="sourcePoint" />
            <mxPoint x="540" y="366" as="targetPoint" />
          </mxGeometry>
        </mxCell>
        <mxCell id="obQqOz2f5GegzhMVmb3T-28" value="" style="endArrow=none;html=1;rounded=0;" edge="1" parent="1">
          <mxGeometry width="50" height="50" relative="1" as="geometry">
            <mxPoint x="406" y="665" as="sourcePoint" />
            <mxPoint x="537" y="587" as="targetPoint" />
          </mxGeometry>
        </mxCell>
        <mxCell id="obQqOz2f5GegzhMVmb3T-29" value="" style="endArrow=none;html=1;rounded=0;" edge="1" parent="1">
          <mxGeometry width="50" height="50" relative="1" as="geometry">
            <mxPoint x="145" y="481" as="sourcePoint" />
            <mxPoint x="258" y="764" as="targetPoint" />
          </mxGeometry>
        </mxCell>
        <mxCell id="obQqOz2f5GegzhMVmb3T-30" value="" style="endArrow=none;html=1;rounded=0;exitX=1;exitY=0.5;exitDx=0;exitDy=0;" edge="1" parent="1" source="obQqOz2f5GegzhMVmb3T-18">
          <mxGeometry width="50" height="50" relative="1" as="geometry">
            <mxPoint x="406" y="965" as="sourcePoint" />
            <mxPoint x="533" y="866" as="targetPoint" />
          </mxGeometry>
        </mxCell>
        <mxCell id="obQqOz2f5GegzhMVmb3T-31" value="Receive delivery" style="ellipse;whiteSpace=wrap;html=1;" vertex="1" parent="1">
          <mxGeometry x="258" y="1022" width="148" height="80" as="geometry" />
        </mxCell>
        <mxCell id="obQqOz2f5GegzhMVmb3T-32" value="" style="endArrow=none;html=1;rounded=0;" edge="1" parent="1">
          <mxGeometry width="50" height="50" relative="1" as="geometry">
            <mxPoint x="130" y="501" as="sourcePoint" />
            <mxPoint x="260" y="1050" as="targetPoint" />
          </mxGeometry>
        </mxCell>
        <mxCell id="obQqOz2f5GegzhMVmb3T-33" value="" style="endArrow=none;html=1;rounded=0;entryX=0;entryY=0.5;entryDx=0;entryDy=0;" edge="1" parent="1" target="obQqOz2f5GegzhMVmb3T-31">
          <mxGeometry width="50" height="50" relative="1" as="geometry">
            <mxPoint x="122" y="812" as="sourcePoint" />
            <mxPoint x="260" y="1090" as="targetPoint" />
          </mxGeometry>
        </mxCell>
        <mxCell id="obQqOz2f5GegzhMVmb3T-34" value="" style="endArrow=classic;html=1;rounded=0;exitX=0.02;exitY=0.325;exitDx=0;exitDy=0;exitPerimeter=0;" edge="1" parent="1" source="obQqOz2f5GegzhMVmb3T-17">
          <mxGeometry width="50" height="50" relative="1" as="geometry">
            <mxPoint x="252" y="852" as="sourcePoint" />
            <mxPoint x="138" y="492" as="targetPoint" />
          </mxGeometry>
        </mxCell>
        <mxCell id="obQqOz2f5GegzhMVmb3T-35" value="" style="endArrow=classic;html=1;rounded=0;" edge="1" parent="1">
          <mxGeometry width="50" height="50" relative="1" as="geometry">
            <mxPoint x="406" y="564" as="sourcePoint" />
            <mxPoint x="529" y="556" as="targetPoint" />
          </mxGeometry>
        </mxCell>
        <mxCell id="obQqOz2f5GegzhMVmb3T-38" value="" style="endArrow=classic;html=1;rounded=0;entryX=0.007;entryY=0.388;entryDx=0;entryDy=0;entryPerimeter=0;" edge="1" parent="1" target="obQqOz2f5GegzhMVmb3T-14">
          <mxGeometry width="50" height="50" relative="1" as="geometry">
            <mxPoint x="147" y="439" as="sourcePoint" />
            <mxPoint x="221" y="504" as="targetPoint" />
          </mxGeometry>
        </mxCell>
      </root>
    </mxGraphModel>
  </diagram>
</mxfile>
